<?xml version="1.0" encoding="UTF-8" standalone="no"?>
<svg
   version="1.1"
   id="Layer_1"
   x="0px"
   y="0px"
   width="100%"
   viewBox="0 0 300 300"
   enable-background="new 0 0 300 300"
   xml:space="preserve"
   sodipodi:docname="logoWithText.svg"
   inkscape:version="1.2.1 (9c6d41e410, 2022-07-14)"
   inkscape:export-filename="..\Desktop\reactApps\Corus\maconbiscuits\public\catInCup2.svg"
   inkscape:export-xdpi="32"
   inkscape:export-ydpi="32"
   xmlns:inkscape="http://www.inkscape.org/namespaces/inkscape"
   xmlns:sodipodi="http://sodipodi.sourceforge.net/DTD/sodipodi-0.dtd"
   xmlns="http://www.w3.org/2000/svg"
   xmlns:svg="http://www.w3.org/2000/svg"><defs
   id="defs2091" /><sodipodi:namedview
   id="namedview2089"
   pagecolor="#ffffff"
   bordercolor="#111111"
   borderopacity="1"
   inkscape:showpageshadow="0"
   inkscape:pageopacity="0"
   inkscape:pagecheckerboard="1"
   inkscape:deskcolor="#d1d1d1"
   showgrid="false"
   inkscape:zoom="2.2833334"
   inkscape:cx="224.45255"
   inkscape:cy="149.78102"
   inkscape:window-width="1920"
   inkscape:window-height="1017"
   inkscape:window-x="-8"
   inkscape:window-y="-8"
   inkscape:window-maximized="1"
   inkscape:current-layer="Layer_1" />

<path
   id="path2056"
   style="stroke:none;stroke-width:2.79266"
   d="M 236.00195 110.18359 C 231.92767 110.04979 228.26748 111.84141 223.91992 111.24414 C 222.30045 111.47837 221.65367 111.62771 220.05273 112.16211 C 206.1414 120.61015 194.11929 133.16246 179.13477 133.05469 C 157.53436 132.89971 136.08603 137.50258 114.45703 135.14844 C 86.46842 132.10214 57.885129 135.29674 29.916016 122.17969 C 28.346117 122.17853 27.731012 122.2902 26.322266 122.91797 C 24.937766 124.72451 24.156317 125.18114 22.339844 123.96289 C 21.099397 123.42347 20.594282 123.23353 19.320312 122.82617 C 16.500182 122.08749 14.509366 121.28538 11.722656 120.37109 C 9.3680797 119.82328 7.7949543 119.57051 5.9414062 122.24414 C 6.0241571 144.62278 6.1665886 165.90014 7.3398438 187.08789 C 9.1364286 219.53164 20.088593 246.95887 41.951172 264.41406 C 87.402557 300.70275 136.70832 299.47723 186.77148 283.13867 C 203.60294 277.6456 216.30793 264.58301 224.16406 245.00391 C 226.64745 238.81475 228.80799 239.014 233.60938 240.9375 C 252.80606 248.62804 268.46724 240.95485 281.04883 221.79883 C 287.7647 211.57372 292.02827 199.87756 294.92773 187.25977 C 304.26342 146.63324 285.81781 118.23666 251.35156 121.70703 C 248.21552 124.40294 246.12254 124.01654 244.63672 119.2207 C 243.53709 114.99219 245.86754 108.56651 238.90234 110.63672 C 237.90448 110.34776 236.94217 110.21447 236.00195 110.18359 z M 243.25195 158.26953 C 256.6775 157.98389 268.19064 168.39366 269.05469 180.12109 C 269.97816 192.6556 262.27235 205.36581 251.87305 208.45898 C 241.31448 211.5995 236.8163 206.16847 238.66797 192.88867 C 240.22108 181.74981 241.45362 170.54085 243.25195 158.26953 z " />
<path
   fill="#242424"
   opacity="1"
   stroke="none"
   d="m 12.682703,123.00091 c -2.072292,-0.19516 -3.4361831,-0.82614 -5.5098369,-1.6776 3.5726779,-14.53486 14.9960149,-19.33943 23.6689359,-27.082876 7.557919,-6.747861 5.866115,-9.817035 0.978714,-16.300651 -3.832021,-5.083451 -12.091844,-10.218441 -9.793179,-16.265718 3.048935,-8.021042 12.032834,-4.289948 18.177608,-3.481878 6.739772,0.886397 13.14408,-0.163994 20.639593,-1.783192 1.397701,-0.975006 1.869324,-1.005611 1.829542,-1.679834 2.882763,-3.627213 1.273455,-0.933549 1.354384,-1.595935 0.857615,0.08881 0.04669,0.0193 1.351531,0.131553 3.740736,-0.528983 6.583732,-1.165134 10.15622,-2.989047 13.148335,-3.551695 25.357105,1.79463 37.845335,-0.368188 7.45825,-1.29165 9.26096,8.821827 10.00855,16.791254 0.96836,10.322115 3.90754,11.10362 10.13799,4.78433 4.01897,-4.076274 12.15104,-17.273457 17.45845,-9.272074 4.23781,6.38885 -5.97651,16.205068 -9.4139,21.802132 -5.1378,8.365709 -14.85471,11.151306 -18.96269,23.650374 23.29591,1.3887 44.84417,0.20358 65.80464,-8.890998 3.19637,-1.386833 7.36476,-7.566397 10.18522,-1.856196 3.03137,6.137184 -0.8754,12.044604 -4.85054,15.341314 -6.68581,5.54485 -14.27205,8.5527 -22.18683,9.28734 -35.88606,3.33119 -71.792944,6.51214 -107.808903,5.81733 -10.014201,-0.19306 -19.980643,-2.38999 -28.07649,-10.61554 -5.266926,-5.35122 -6.005716,-1.6078 -6.799035,5.14041 -1.007243,1.55453 -1.717199,1.95747 -3.514296,2.89918 -1.49244,0.92553 -1.897748,1.31238 -2.998015,1.3015 -0.694969,-0.39764 -0.529723,-0.46282 -0.52694,-0.35421 -2.349139,-2.87213 -4.964645,-4.78224 -9.156124,-2.73278 z"
   id="path2058"
   style="fill:#000000;fill-opacity:1;stroke-width:2.79266"
   sodipodi:nodetypes="ccccsccccccccsscccscccccccccc" />
<path
   fill="#1D1D1D"
   opacity="1"
   stroke="none"
   d="M 67.795375,54.957159 C 66.264077,54.202039 65.597793,53.943942 64.027827,53.023576 74.950801,36.8956 90.209689,31.81498 106.45596,31.003136 c 10.92187,-0.545734 21.43775,-2.735215 31.42199,-7.973669 6.41107,-3.363702 12.51219,-3.964121 19.29432,-2.142526 23.7455,6.377884 43.23677,22.774296 61.79429,41.129259 4.03329,3.989237 8.13506,10.32345 9.0381,16.327875 1.82524,12.136819 6.28491,21.385947 12.5365,29.745305 -5.13965,1.25231 -9.14293,2.51587 -13.54977,5.81791 -1.61341,0.13744 -3.21529,-0.0252 -5.07791,-0.50765 2.31947,-30.103207 -9.00456,-48.118304 -28.68161,-61.129734 -8.42671,-5.572087 -16.74964,-11.427315 -25.54791,-15.932648 -9.78563,-5.010919 -19.61542,-6.307111 -30.15669,-1.292843 -10.00166,4.757406 -20.70613,7.296237 -31.6101,6.733656 -10.279633,-0.53046 -19.283322,5.361271 -29.644409,9.243833 -3.30028,1.287738 -4.87211,4.427666 -8.477386,3.935255 z"
   id="path2060"
   style="fill:#000000;fill-opacity:1;stroke-width:2.79266"
   sodipodi:nodetypes="cccscscccccscccc" />

<path
   fill="#1d1d1d"
   opacity="1"
   stroke="none"
   d="m 251.35184,121.70706 c -0.58351,7.50876 -2.94976,8.11717 -6.29579,0.64697 1.77041,-1.01134 3.58694,-0.94225 6.29579,-0.64697 z"
   id="path2064"
   style="fill:#000000;fill-opacity:1;stroke-width:2.79266" />

<path
   fill="#f5f5f5"
   opacity="1"
   stroke="none"
   d="M 73.501135,51.814725 C 84.778514,41.36012 96.683256,37.835437 109.83105,38.447195 c 9.83488,0.457593 19.38634,-3.689109 28.41195,-8.274155 8.23457,-4.183113 15.99624,-3.558843 24.05966,-0.5369 18.94327,7.099391 35.30954,20.37318 50.71725,35.202853 12.04869,11.596778 14.46502,27.27276 8.99464,47.076227 -14.93903,15.81862 -31.02733,24.02295 -50.16128,25.83603 -40.66255,3.85309 -81.0445,-0.1089 -121.48888,-3.43057 -7.439462,-0.61094 -14.639637,-3.45131 -21.110095,-10.66433 -5.184098,-7.93393 -5.704523,-14.68531 2.039258,-21.29457 2.935055,14.60029 12.837286,18.61336 22.198888,19.20413 43.89365,2.76995 87.731849,1.32357 131.148529,-8.39724 6.76824,-1.51537 13.31047,-4.65084 13.28861,-17.008808 -25.72366,21.979548 -54.27959,13.696918 -82.36608,18.372328 4.67242,-25.141902 27.58935,-29.099437 34.10742,-52.983517 -12.19085,4.912907 -15.70179,21.780307 -27.48538,24.485578 -0.38538,-5.169029 -0.67514,-9.635897 -1.05795,-14.090154 -1.63874,-19.067963 -2.28615,-19.749844 -17.19303,-14.518886 -4.62086,1.621463 -7.779672,-2.479953 -11.739068,-3.289852 -5.359385,-1.096204 -10.65425,-2.458515 -16.763887,1.572052 -1.443355,-0.624718 -1.847821,-1.516197 -1.93047,-3.892686 z"
   id="path2068"
   style="stroke-width:2.79266" />



<path
   fill="#f7f7f7"
   opacity="1"
   stroke="none"
   d="m 40.845514,93.150572 c 8.389641,-14.489386 -8.612719,-17.09241 -8.216593,-27.67454 9.310899,0.0513 18.755429,-0.672627 28.059315,0.44602 5.57652,0.670567 10.45435,0.83333 15.531166,-2.583158 6.186849,-4.1635 12.658404,-3.893294 19.168194,-0.249955 2.547198,1.425502 6.404934,3.491625 8.152704,2.153398 13.99313,-10.714741 11.21388,3.948072 12.15184,12.416609 0.61158,5.521855 1.04712,11.273453 0.5095,16.759751 -1.67729,17.114893 -6.77162,22.074073 -20.886149,21.643903 -13.249093,-0.40378 -26.647172,0.67173 -39.690655,-1.56224 -6.671816,-1.1426 -19.589377,1.6398 -15.907732,-18.093258 0,0 0.521943,-1.008075 0.49175,-0.85524 -0.09258,-0.148672 0.744678,-2.604662 0.63666,-2.401255 z"
   id="path2076"
   style="stroke-width:2.79266"
   sodipodi:nodetypes="sccsccscsccccs" />
<path
   fill="#323232"
   opacity="1"
   stroke="none"
   d="m 40.557874,99.025354 c 5.746209,0.788256 12.695152,-0.02525 16.01782,5.188126 -6.678108,0.2854 -11.473869,-0.53396 -15.261559,-4.17337 -1.155916,-0.230322 -1.167076,-0.530921 -0.756261,-1.014756 z"
   id="path2078"
   style="fill:#000000;fill-opacity:1;stroke-width:1.97241" />

<path
   fill="#242424"
   opacity="1"
   stroke="none"
   d="m 168.34664,55.864924 c -4.91564,-0.701822 -8.54586,5.744664 -14.02135,-1.50891 10.48563,-7.02413 19.79355,-7.640318 31.61636,-0.557638 -6.46808,5.57546 -11.64733,1.472524 -17.59501,2.066548 z"
   id="path2082"
   style="stroke-width:2.79266;fill:#000000;fill-opacity:1" />

<path
   fill="#3B3B3B"
   opacity="1"
   stroke="none"
   d="m 84.763358,102.41769 c -5.058279,0.93667 -8.580759,3.54986 -14.152412,1.66005 2.893607,-3.76481 8.613965,-4.864867 14.040863,-5.071557 5.833019,-0.222139 5.361858,1.543867 0.111605,3.411507 z"
   id="path2086"
   style="fill:#000000;fill-opacity:1;stroke-width:1.96419" />
<path
   sodipodi:type="star"
   style="fill:#000000;fill-opacity:1;stroke:#000000;stroke-width:0.377953;stroke-opacity:1"
   id="path4819"
   inkscape:flatsided="false"
   sodipodi:sides="3"
   sodipodi:cx="192.15085"
   sodipodi:cy="163.9472"
   sodipodi:r1="3.8745196"
   sodipodi:r2="3.4674659"
   sodipodi:arg1="0.060853726"
   sodipodi:arg2="1.1080513"
   inkscape:rounded="0"
   inkscape:randomized="0"
   d="m 196.0182,164.18284 -2.31945,2.86716 -3.68564,0.12861 -1.32331,-3.44228 1.73144,-3.25616 3.64276,0.57512 z"
   inkscape:transform-center-x="0.48817046"
   inkscape:transform-center-y="-0.61740979"
   transform="matrix(1.890294,2.0395717,-1.6250767,2.3724363,138.67727,-664.44152)" /><path
   style="fill:#7d7d7d;fill-opacity:1;stroke:#000000;stroke-width:1.0555;stroke-opacity:1"
   d="m 217.21615,128.38718 21.30987,-12.07579 -7.46267,-9.82318 -3.07847,-2.17259 -2.41254,6.75936 -0.94556,2.36361 -10.89873,10.29005 -2.98227,5.13682 z"
   id="path5469" /><path
   style="fill:#7c7c7c;fill-opacity:1;stroke:#000000;stroke-width:1.0555;stroke-opacity:1"
   d="m 12.426245,122.87205 3.668941,4.0742 9.896077,3.34297 -5.405212,-12.3174 1.738851,-9.77743 -6.422211,4.13299 z"
   id="path5473" /><text
   xml:space="preserve"
   style="font-style:normal;font-variant:normal;font-weight:bold;font-stretch:normal;font-size:50px;line-height:1;font-family:'Amatic SC';-inkscape-font-specification:'Amatic SC Bold';letter-spacing:0px;white-space:pre;inline-size:142.85;display:inline;fill:#ffffff;fill-opacity:1;stroke:none;stroke-width:0.377953;stroke-opacity:1"
   x="113.97849"
   y="181.00359"
   id="text7220"
   transform="matrix(1.2129355,0,0,0.96104409,-100.56446,8.4596977)" /><text
   xml:space="preserve"
   style="font-style:normal;font-variant:normal;font-weight:bold;font-stretch:normal;font-size:50px;font-family:Caveat;-inkscape-font-specification:'Caveat Bold';fill:#ffffff;stroke-width:0.377953"
   x="29.290239"
   y="184.19788"
   id="text2353"><tspan
     sodipodi:role="line"
     id="tspan2351"
     x="29.290239"
     y="184.19788">Comfy Cat</tspan></text><text
   xml:space="preserve"
   style="font-style:normal;font-variant:normal;font-weight:bold;font-stretch:normal;font-size:25px;font-family:Caveat;-inkscape-font-specification:'Caveat Bold';fill:#ffffff;stroke-width:0.377953"
   x="88.577812"
   y="217.6433"
   id="text2404"><tspan
     sodipodi:role="line"
     x="88.577812"
     y="217.6433"
     style="font-size:25px"
     id="tspan2406">Cat Cafe</tspan></text><text
   xml:space="preserve"
   style="font-style:normal;font-variant:normal;font-weight:bold;font-stretch:normal;font-size:25px;font-family:Caveat;-inkscape-font-specification:'Caveat Bold';fill:#ffffff;stroke-width:0.377953"
   x="115.83939"
   y="241.53284"
   id="text2414"><tspan
     sodipodi:role="line"
     id="tspan2412"
     x="115.83939"
     y="241.53284">&amp;</tspan></text><text
   xml:space="preserve"
   style="font-style:normal;font-variant:normal;font-weight:bold;font-stretch:normal;font-size:25px;font-family:Caveat;-inkscape-font-specification:'Caveat Bold';fill:#ffffff;stroke-width:0.377953"
   x="93.941597"
   y="264.52554"
   id="text2418"><tspan
     sodipodi:role="line"
     id="tspan2416"
     x="93.941597"
     y="264.52554">Bakery</tspan></text><path
   style="fill:#f6f6f6;fill-opacity:1;stroke-width:0.377953"
   d="m 68.749359,110.24672 30.348817,-4.95491 z"
   id="path1834" /></svg>
