<?xml version="1.0" encoding="UTF-8" standalone="no"?>
<svg
   version="1.1"
   id="Layer_1"
   x="0px"
   y="0px"
   width="100%"
   viewBox="0 0 300 300"
   enable-background="new 0 0 300 300"
   xml:space="preserve"
   sodipodi:docname="logoWithTextAndWhiteCircleBG.svg"
   inkscape:version="1.2.1 (9c6d41e410, 2022-07-14)"
   inkscape:export-filename="..\Desktop\reactApps\Corus\maconbiscuits\public\catInCup2.svg"
   inkscape:export-xdpi="32"
   inkscape:export-ydpi="32"
   xmlns:inkscape="http://www.inkscape.org/namespaces/inkscape"
   xmlns:sodipodi="http://sodipodi.sourceforge.net/DTD/sodipodi-0.dtd"
   xmlns="http://www.w3.org/2000/svg"
   xmlns:svg="http://www.w3.org/2000/svg"><defs
   id="defs2091" /><sodipodi:namedview
   id="namedview2089"
   pagecolor="#ffffff"
   bordercolor="#111111"
   borderopacity="1"
   inkscape:showpageshadow="0"
   inkscape:pageopacity="0"
   inkscape:pagecheckerboard="1"
   inkscape:deskcolor="#d1d1d1"
   showgrid="false"
   inkscape:zoom="3.2291211"
   inkscape:cx="234.89364"
   inkscape:cy="161.34421"
   inkscape:window-width="1920"
   inkscape:window-height="1017"
   inkscape:window-x="-8"
   inkscape:window-y="-8"
   inkscape:window-maximized="1"
   inkscape:current-layer="Layer_1" />

















<text
   xml:space="preserve"
   style="font-style:normal;font-variant:normal;font-weight:bold;font-stretch:normal;font-size:50px;line-height:1;font-family:'Amatic SC';-inkscape-font-specification:'Amatic SC Bold';letter-spacing:0px;white-space:pre;inline-size:142.85;display:inline;fill:#ffffff;fill-opacity:1;stroke:none;stroke-width:0.377953;stroke-opacity:1"
   x="113.97849"
   y="181.00359"
   id="text7220"
   transform="matrix(1.2129355,0,0,0.96104409,-100.56446,8.4596977)" /><circle
   style="fill:#ffffff;fill-opacity:0.70466322;stroke:none;stroke-width:1.15143;stroke-dasharray:none;stroke-opacity:0.69999999"
   id="path4308"
   cx="150"
   cy="150"
   r="149.42429" /><path
   id="path2056"
   style="stroke:none;stroke-width:2.60554"
   d="M 236.08008 106.44531 C 232.51689 106.55976 229.2235 107.90374 225.36719 107.4043 C 223.81101 107.61649 223.18877 107.75223 221.65039 108.23633 C 208.28266 115.88926 196.73101 127.26166 182.33203 127.16406 C 161.57569 127.02366 140.96545 131.19117 120.18164 129.05859 C 93.286727 126.29901 65.819531 129.19501 38.943359 117.3125 C 37.434807 117.31145 36.843932 117.41178 35.490234 117.98047 C 34.159837 119.61698 33.411508 120.03133 31.666016 118.92773 C 30.474042 118.43908 29.987859 118.2655 28.763672 117.89648 C 26.053743 117.22734 24.138752 116.50011 21.460938 115.67188 C 19.19837 115.17563 17.687368 114.94911 15.90625 117.37109 C 15.985768 137.6435 16.122592 156.91772 17.25 176.11133 C 18.97638 205.50155 29.501504 230.34781 50.509766 246.16016 C 94.185062 279.03343 141.56502 277.9219 189.67188 263.12109 C 205.84562 258.14502 218.05242 246.31253 225.60156 228.57617 C 227.98791 222.96953 230.06397 223.15011 234.67773 224.89258 C 253.12427 231.8593 268.17373 224.90779 280.26367 207.55469 C 286.71712 198.29195 290.81344 187.69782 293.59961 176.26758 C 302.57048 139.46472 284.84598 113.73907 251.72656 116.88281 C 248.71306 119.32498 246.70315 118.97533 245.27539 114.63086 C 244.21873 110.80032 246.4567 104.9801 239.76367 106.85547 C 238.48517 106.50645 237.26781 106.40716 236.08008 106.44531 z M 243.94336 150.00586 C 256.84428 149.7471 267.90799 159.1771 268.73828 169.80078 C 269.62566 181.15557 262.21949 192.66865 252.22656 195.4707 C 242.08058 198.31564 237.75975 193.39713 239.53906 181.36719 C 241.03148 171.2767 242.2153 161.12223 243.94336 150.00586 z " /><path
   fill="#242424"
   opacity="1"
   stroke="none"
   d="m 22.384516,118.05577 c -1.991314,-0.17679 -3.301909,-0.74838 -5.294531,-1.51971 3.433069,-13.16687 14.41002,-17.519236 22.744032,-24.53389 7.262581,-6.112768 5.636887,-8.893079 0.940469,-14.766472 -3.682278,-4.605009 -11.619335,-9.256705 -9.410494,-14.734827 2.929793,-7.26612 11.562631,-3.886188 17.467288,-3.154172 6.476404,0.802972 12.630453,-0.148559 19.833066,-1.615362 1.343083,-0.883241 1.796277,-0.910965 1.758049,-1.521732 2.770115,-3.285828 1.223693,-0.845685 1.30146,-1.445729 0.824102,0.08045 0.04487,0.01748 1.298717,0.119171 3.594561,-0.479196 6.326462,-1.055474 9.759349,-2.707725 12.634538,-3.217417 24.366239,1.625724 36.366469,-0.333535 7.1668,-1.170083 8.89907,7.991538 9.61745,15.210901 0.93052,9.350622 3.75484,10.058573 9.74183,4.33404 3.86192,-3.692625 11.67622,-15.64772 16.77623,-8.399408 4.07221,5.787546 -5.74297,14.679885 -9.04604,19.750166 -4.93703,7.578349 -14.27423,10.101772 -18.22169,21.424454 22.38559,1.258 43.09181,0.18442 63.23322,-8.054195 3.07146,-1.256308 7.07697,-6.854266 9.78721,-1.681496 2.91291,5.559565 -0.84119,10.910991 -4.661,13.897421 -6.42455,5.02298 -13.71434,7.74774 -21.31984,8.41324 -34.48375,3.01766 -68.98752,5.89923 -103.596089,5.26981 -9.622879,-0.17489 -19.199866,-2.16505 -26.979354,-9.61643 -5.061112,-4.84757 -5.771033,-1.45647 -6.533351,4.65661 -0.967884,1.40822 -1.650097,1.77324 -3.376969,2.62632 -1.434121,0.83842 -1.823591,1.18886 -2.880863,1.179 -0.667812,-0.36021 -0.509023,-0.41926 -0.506349,-0.32087 -2.257342,-2.60181 -4.770643,-4.33215 -8.798333,-2.47558 z"
   id="path2058"
   style="fill:#000000;fill-opacity:1;stroke-width:2.60554"
   sodipodi:nodetypes="ccccsccccccccsscccscccccccccc" /><path
   fill="#1D1D1D"
   opacity="1"
   stroke="none"
   d="m 75.343567,56.416144 c -1.47146,-0.684049 -2.111708,-0.917855 -3.620325,-1.751598 10.496141,-14.610049 25.158767,-19.212493 40.770188,-19.947928 10.49508,-0.494371 20.60003,-2.477783 30.19412,-7.223206 6.16055,-3.047118 12.02325,-3.591027 18.54036,-1.940876 22.81761,5.777612 41.54722,20.630832 59.37958,37.258269 3.87568,3.613779 7.81716,9.351831 8.68492,14.791134 1.75391,10.99453 6.03931,19.373152 12.04661,26.945741 -4.93881,1.13445 -8.78565,2.27908 -13.02029,5.27034 -1.55036,0.12451 -3.08965,-0.0228 -4.87948,-0.45987 2.22883,-27.269957 -8.65269,-43.589516 -27.56083,-55.376341 -8.09742,-5.047655 -16.09512,-10.351802 -24.54958,-14.433104 -9.40324,-4.539303 -18.84891,-5.713501 -28.97827,-1.171164 -9.61083,4.30965 -19.897,6.609533 -30.37488,6.0999 -9.87794,-0.480534 -18.529791,4.856681 -28.486005,8.373825 -3.171316,1.16654 -4.681724,4.010945 -8.146118,3.564878 z"
   id="path2060"
   style="fill:#000000;fill-opacity:1;stroke-width:2.60554"
   sodipodi:nodetypes="cccscscccccscccc" /><path
   fill="#1d1d1d"
   opacity="1"
   stroke="none"
   d="m 251.72726,116.8837 c -0.56071,6.80205 -2.8345,7.3532 -6.04977,0.58608 1.70122,-0.91616 3.44677,-0.85357 6.04977,-0.58608 z"
   id="path2064"
   style="fill:#000000;fill-opacity:1;stroke-width:2.60554" /><path
   fill="#f5f5f5"
   opacity="1"
   stroke="none"
   d="M 80.826365,53.569469 C 91.663059,44.098827 103.1026,40.905879 115.73663,41.46006 c 9.45056,0.414525 18.62879,-3.341899 27.3017,-7.495411 7.9128,-3.789408 15.37116,-3.223893 23.11949,-0.486368 18.20303,6.431212 33.92976,18.455703 48.73539,31.889642 11.57787,10.505317 13.89978,24.705912 8.64316,42.645517 -14.35526,14.32981 -29.81488,21.76197 -48.20114,23.40441 -39.0736,3.49044 -77.877551,-0.0987 -116.741503,-3.1077 -7.148752,-0.55344 -14.067568,-3.12648 -20.285182,-9.66063 -4.981521,-7.1872 -5.481609,-13.30316 1.95957,-19.290366 2.820363,13.226136 12.335648,16.861506 21.331429,17.396676 42.178436,2.50925 84.303586,1.199 126.023686,-7.60691 6.50376,-1.37275 12.79034,-4.21311 12.76933,-15.407974 -24.71846,19.910884 -52.15852,12.407794 -79.14749,16.643164 4.48984,-22.775602 26.51125,-26.360663 32.77462,-47.996829 -11.71447,4.450515 -15.08822,19.730395 -26.41134,22.181053 -0.37032,-4.682533 -0.64876,-8.728989 -1.01661,-12.764022 -1.57471,-17.273331 -2.19682,-17.891035 -16.52119,-13.152403 -4.44029,1.468855 -7.47566,-2.246545 -11.280341,-2.980219 -5.14995,-0.993031 -10.23792,-2.227125 -16.10881,1.424095 -1.386954,-0.565921 -1.775615,-1.373497 -1.855034,-3.526316 z"
   id="path2068"
   style="stroke-width:2.60554" /><path
   fill="#f7f7f7"
   opacity="1"
   stroke="none"
   d="m 49.446817,91.014883 c 8.061802,-13.125679 -8.276162,-15.483712 -7.895515,-25.069877 8.947059,0.04647 18.022529,-0.609321 26.96285,0.404041 5.358608,0.607455 10.045828,0.754899 14.924259,-2.340037 5.945088,-3.771641 12.163748,-3.526866 18.419159,-0.22643 2.44767,1.291338 6.15466,3.163002 7.83413,1.950726 13.44633,-9.706295 10.77568,3.576488 11.67699,11.247987 0.58768,5.002151 1.0062,10.212422 0.48959,15.182362 -1.61175,15.504075 -6.50701,19.996505 -20.06999,19.606825 -12.731361,-0.36578 -25.605891,0.60851 -38.139678,-1.4152 -6.411103,-1.03507 -18.823889,1.48546 -15.28611,-16.390364 0,0 0.501547,-0.913197 0.472534,-0.774747 -0.08896,-0.134679 0.715578,-2.359517 0.611781,-2.175254 z"
   id="path2076"
   style="stroke-width:2.60554"
   sodipodi:nodetypes="sccsccscsccccs" /><path
   fill="#323232"
   opacity="1"
   stroke="none"
   d="m 49.170417,96.336744 c 5.521667,0.714068 12.199068,-0.02287 15.391897,4.699826 -6.41715,0.25854 -11.025508,-0.4837 -14.665188,-3.780576 -1.110746,-0.208645 -1.12147,-0.480952 -0.726709,-0.91925 z"
   id="path2078"
   style="fill:#000000;fill-opacity:1;stroke-width:1.84025" /><path
   fill="#242424"
   opacity="1"
   stroke="none"
   d="m 171.96562,57.238473 c -4.72355,-0.635768 -8.21191,5.203989 -13.47344,-1.366895 10.07589,-6.363036 19.02009,-6.921229 30.3809,-0.505155 -6.21533,5.050711 -11.19219,1.333934 -16.90746,1.87205 z"
   id="path2082"
   style="fill:#000000;fill-opacity:1;stroke-width:2.60554" /><path
   fill="#3B3B3B"
   opacity="1"
   stroke="none"
   d="m 91.648499,99.409804 c -4.86062,0.848506 -8.245453,3.215746 -13.599384,1.503806 2.780534,-3.410473 8.277364,-4.406995 13.492194,-4.594232 5.60509,-0.201232 5.15234,1.398562 0.10724,3.090426 z"
   id="path2086"
   style="fill:#000000;fill-opacity:1;stroke-width:1.83258" /><path
   sodipodi:type="star"
   style="fill:#000000;fill-opacity:1;stroke:#000000;stroke-width:0.377953;stroke-opacity:1"
   id="path4819"
   inkscape:flatsided="false"
   sodipodi:sides="3"
   sodipodi:cx="192.15085"
   sodipodi:cy="163.9472"
   sodipodi:r1="3.8745196"
   sodipodi:r2="3.4674659"
   sodipodi:arg1="0.060853726"
   sodipodi:arg2="1.1080513"
   inkscape:rounded="0"
   inkscape:randomized="0"
   d="m 196.0182,164.18284 -2.31945,2.86716 -3.68564,0.12861 -1.32331,-3.44228 1.73144,-3.25616 3.64276,0.57512 z"
   inkscape:transform-center-x="0.46909674"
   inkscape:transform-center-y="-0.55929018"
   transform="matrix(1.8164276,1.847612,-1.5615741,2.1491482,143.45563,-595.27442)" /><path
   style="fill:#7d7d7d;fill-opacity:1;stroke:#000000;stroke-width:0.984778;stroke-opacity:1"
   d="m 218.92548,122.9351 20.47715,-10.93924 -7.17106,-8.89865 -2.95817,-1.96811 -2.31827,6.12318 -0.90861,2.14116 -10.47284,9.32157 -2.86573,4.65335 z"
   id="path5469" /><path
   style="fill:#7c7c7c;fill-opacity:1;stroke:#000000;stroke-width:0.984778;stroke-opacity:1"
   d="m 22.138079,117.93904 3.525571,3.69075 9.509371,3.02833 -5.193994,-11.15811 1.670902,-8.8572 -6.171252,3.744 z"
   id="path5473" /><text
   xml:space="preserve"
   style="font-style:normal;font-variant:normal;font-weight:bold;font-stretch:normal;font-size:46.6499px;font-family:Caveat;-inkscape-font-specification:'Caveat Bold';fill:#ffffff;stroke-width:0.352629"
   x="37.22876"
   y="178.68599"
   id="text2353"
   transform="scale(1.0299318,0.97093808)"><tspan
     sodipodi:role="line"
     id="tspan2351"
     x="37.22876"
     y="178.68599"
     style="stroke-width:0.352629">Comfy Cat</tspan></text><text
   xml:space="preserve"
   style="font-style:normal;font-variant:normal;font-weight:bold;font-stretch:normal;font-size:23.3249px;font-family:Caveat;-inkscape-font-specification:'Caveat Bold';fill:#ffffff;stroke-width:0.352629"
   x="92.5439"
   y="209.89047"
   id="text2404"
   transform="scale(1.0299318,0.97093808)"><tspan
     sodipodi:role="line"
     x="92.5439"
     y="209.89047"
     style="font-size:23.3249px;stroke-width:0.352629"
     id="tspan2406">Cat Cafe</tspan></text><text
   xml:space="preserve"
   style="font-style:normal;font-variant:normal;font-weight:bold;font-stretch:normal;font-size:23.3249px;font-family:Caveat;-inkscape-font-specification:'Caveat Bold';fill:#ffffff;stroke-width:0.352629"
   x="117.97887"
   y="232.17934"
   id="text2414"
   transform="scale(1.0299318,0.97093808)"><tspan
     sodipodi:role="line"
     id="tspan2412"
     x="117.97887"
     y="232.17934"
     style="stroke-width:0.352629">&amp;</tspan></text><text
   xml:space="preserve"
   style="font-style:normal;font-variant:normal;font-weight:bold;font-stretch:normal;font-size:23.3249px;font-family:Caveat;-inkscape-font-specification:'Caveat Bold';fill:#ffffff;stroke-width:0.352629"
   x="97.548286"
   y="253.63147"
   id="text2418"
   transform="scale(1.0299318,0.97093808)"><tspan
     sodipodi:role="line"
     id="tspan2416"
     x="97.548286"
     y="253.63147"
     style="stroke-width:0.352629">Bakery</tspan></text><path
   style="fill:#f6f6f6;fill-opacity:1;stroke-width:0.352629"
   d="m 76.260273,106.50198 29.162877,-4.48857 z"
   id="path1834" /></svg>
